<svg width="242" height="129" viewBox="0 0 242 129" fill="none" xmlns="http://www.w3.org/2000/svg">
<path d="M77.5321 85.358V104.65H65.5201V126.49H44.7721V104.65H5.38398e-05V84.448L36.4001 1.82001H65.5201V85.358H77.5321ZM45.5001 85.358V24.024L18.9281 85.358H45.5001ZM132.388 31.85C132.388 27.846 131.478 24.8127 129.658 22.75C127.959 20.6873 124.865 19.656 120.376 19.656C115.887 19.656 112.732 20.6873 110.912 22.75C109.213 24.8127 108.364 27.846 108.364 31.85V96.46C108.364 100.464 109.213 103.497 110.912 105.56C112.732 107.623 115.887 108.654 120.376 108.654C124.865 108.654 127.959 107.623 129.658 105.56C131.478 103.497 132.388 100.464 132.388 96.46V31.85ZM86.524 31.122C86.524 21.5367 89.254 13.9533 94.714 8.37201C100.295 2.79068 108.849 1.12057e-05 120.376 1.12057e-05C131.903 1.12057e-05 140.396 2.79068 145.856 8.37201C151.437 13.9533 154.228 21.5367 154.228 31.122V97.188C154.228 106.773 151.437 114.357 145.856 119.938C140.396 125.519 131.903 128.31 120.376 128.31C108.849 128.31 100.295 125.519 94.714 119.938C89.254 114.357 86.524 106.773 86.524 97.188V31.122ZM241.581 85.358V104.65H229.569V126.49H208.821V104.65H164.049V84.448L200.449 1.82001H229.569V85.358H241.581ZM209.549 85.358V24.024L182.977 85.358H209.549Z" fill="#314EB1"/>
</svg>
