<svg width="16" height="16" viewBox="0 0 16 16" fill="none" xmlns="http://www.w3.org/2000/svg">
<path d="M8.00016 6.66658C8.70741 6.66658 9.38568 6.38563 9.88578 5.88554C10.3859 5.38544 10.6668 4.70716 10.6668 3.99992C10.6668 3.29267 10.3859 2.6144 9.88578 2.1143C9.38568 1.6142 8.70741 1.33325 8.00016 1.33325C7.29292 1.33325 6.61464 1.6142 6.11454 2.1143C5.61445 2.6144 5.3335 3.29267 5.3335 3.99992C5.3335 4.70716 5.61445 5.38544 6.11454 5.88554C6.61464 6.38563 7.29292 6.66658 8.00016 6.66658ZM8.00016 6.66658V14.6666" stroke="#FF383C" stroke-width="2"/>
<circle cx="2" cy="2" r="2" transform="matrix(1 0 0 -1 6 6)" fill="#FF383C"/>
</svg>
