<svg width="24" height="24" viewBox="0 0 24 24" fill="none" xmlns="http://www.w3.org/2000/svg">
<path d="M21.24 11.9325L20.7825 11.4675L20.595 11.2875C20.8373 10.5479 20.9736 9.77779 21 9C21 7.4087 20.3679 5.88258 19.2427 4.75736C18.1175 3.63214 16.5913 3 15 3H12.24C11.9288 3 11.6228 3.075 11.3475 3.2175C11.011 3.135 10.671 3.075 10.3275 3.0375H9.75004C8.15874 3.0375 6.63262 3.66964 5.5074 4.79486C4.38218 5.92008 3.75004 7.4462 3.75004 9.0375V10.6125L2.85754 11.475C2.57109 11.7649 2.37657 12.1328 2.29836 12.5328C2.22016 12.9327 2.26175 13.3469 2.41792 13.7233C2.57409 14.0997 2.83789 14.4216 3.17627 14.6488C3.51464 14.8759 3.91252 14.9981 4.32004 15C4.40704 15.0075 4.49454 15.0075 4.58254 15C4.67554 15.3472 4.85629 15.6645 5.10754 15.9225C5.45417 16.2593 5.90808 16.4637 6.39004 16.5C6.43166 16.9836 6.64129 17.4373 6.98254 17.7825C7.32461 18.1271 7.7806 18.3351 8.26504 18.3675C8.30015 18.8513 8.50774 19.3064 8.85004 19.65C9.21003 20.0126 9.69221 20.2282 10.2025 20.2545C10.7128 20.2809 11.2146 20.1161 11.61 19.7925L12.225 20.4C12.4167 20.5928 12.6446 20.7457 12.8956 20.8501C13.1466 20.9545 13.4157 21.0082 13.6875 21.0082C13.9594 21.0082 14.2285 20.9545 14.4795 20.8501C14.7305 20.7457 14.9584 20.5928 15.15 20.4C15.5018 20.0583 15.7154 19.5991 15.75 19.11C16.2345 19.0776 16.6905 18.8696 17.0325 18.525C17.3667 18.1796 17.5708 17.729 17.61 17.25C18.0936 17.2084 18.5474 16.9988 18.8925 16.6575C19.1666 16.3842 19.3566 16.038 19.44 15.66C19.7663 15.7166 20.1015 15.6914 20.4156 15.5867C20.7297 15.482 21.013 15.301 21.24 15.06C21.4462 14.8551 21.6098 14.6114 21.7214 14.3431C21.833 14.0747 21.8905 13.7869 21.8905 13.4963C21.8905 13.2056 21.833 12.9178 21.7214 12.6494C21.6098 12.3811 21.4462 12.1374 21.24 11.9325ZM12.24 4.5H15C16.1935 4.5 17.3381 4.97411 18.182 5.81802C19.0259 6.66193 19.5 7.80653 19.5 9C19.4865 9.35581 19.4413 9.7097 19.365 10.0575L16.2825 6.9675C16.2125 6.89799 16.1293 6.843 16.038 6.80567C15.9466 6.76835 15.8487 6.74943 15.75 6.75H12.39C12.2218 6.74885 12.058 6.80432 11.925 6.9075L10.425 8.055C10.2348 8.18457 10.0025 8.23703 9.77504 8.20175C9.5476 8.16647 9.34207 8.04609 9.20004 7.86498C9.05801 7.68387 8.99011 7.45556 9.01007 7.22628C9.03002 6.99699 9.13636 6.78384 9.30754 6.63L11.895 4.605C11.9927 4.52786 12.1159 4.49037 12.24 4.5ZM3.91504 13.3425C3.81053 13.2336 3.75218 13.0885 3.75218 12.9375C3.75218 12.7865 3.81053 12.6414 3.91504 12.5325L5.03254 11.415C5.08561 11.3619 5.14879 11.3199 5.21835 11.2915C5.28791 11.2632 5.36244 11.2491 5.43754 11.25C5.51151 11.2492 5.58487 11.2634 5.65318 11.2918C5.7215 11.3202 5.78337 11.3621 5.83504 11.415C5.88856 11.468 5.93104 11.5311 5.96003 11.6006C5.98902 11.6701 6.00395 11.7447 6.00395 11.82C6.00395 11.8953 5.98902 11.9699 5.96003 12.0394C5.93104 12.1089 5.88856 12.172 5.83504 12.225L4.72504 13.3425C4.61443 13.4437 4.46995 13.4998 4.32004 13.4998C4.17013 13.4998 4.02565 13.4437 3.91504 13.3425ZM6.00004 14.4375C5.99979 14.3629 6.01498 14.2891 6.04467 14.2207C6.07436 14.1523 6.1179 14.0908 6.17254 14.04L7.28254 12.9225C7.38896 12.8151 7.53369 12.7543 7.68489 12.7536C7.83609 12.7529 7.98138 12.8123 8.08879 12.9188C8.1962 13.0252 8.25694 13.1699 8.25765 13.3211C8.25835 13.4723 8.19896 13.6176 8.09254 13.725L6.97504 14.8425C6.908 14.9075 6.82621 14.9552 6.73667 14.9816C6.64714 15.0081 6.55253 15.0124 6.46096 14.9943C6.36939 14.9761 6.28357 14.9361 6.21087 14.8775C6.13818 14.8189 6.08076 14.7436 6.04354 14.658C6.01329 14.5885 5.99845 14.5133 6.00004 14.4375ZM8.04004 15.9375L9.15754 14.82C9.21061 14.7669 9.27379 14.7249 9.34335 14.6965C9.41291 14.6682 9.48744 14.6541 9.56254 14.655C9.63651 14.6542 9.70987 14.6684 9.77818 14.6968C9.8465 14.7252 9.90837 14.7671 9.96004 14.82C10.0136 14.873 10.056 14.9361 10.085 15.0056C10.114 15.0751 10.1289 15.1497 10.1289 15.225C10.1289 15.3003 10.114 15.3749 10.085 15.4444C10.056 15.5139 10.0136 15.577 9.96004 15.63L8.85004 16.7175C8.7416 16.8198 8.59756 16.8758 8.4485 16.8736C8.29944 16.8715 8.15709 16.8113 8.05168 16.7059C7.94627 16.6004 7.88609 16.4581 7.88391 16.309C7.88174 16.16 7.93775 16.0159 8.04004 15.9075V15.9375ZM9.91504 18.615C9.86153 18.562 9.81904 18.4989 9.79005 18.4294C9.76106 18.3599 9.74613 18.2853 9.74613 18.21C9.74613 18.1347 9.76106 18.0601 9.79005 17.9906C9.81904 17.9211 9.86153 17.858 9.91504 17.805L11.025 16.695C11.1324 16.587 11.2777 16.5251 11.43 16.5225C11.505 16.5229 11.5791 16.5381 11.6481 16.5671C11.7172 16.5962 11.7798 16.6385 11.8325 16.6918C11.8851 16.7451 11.9268 16.8083 11.955 16.8777C11.9833 16.9471 11.9975 17.0213 11.997 17.0963C11.9971 17.2459 11.939 17.3898 11.835 17.4975L10.7175 18.615C10.606 18.7151 10.46 18.7679 10.3102 18.7623C10.1605 18.7567 10.0188 18.6931 9.91504 18.585V18.615ZM19.665 14.205C19.3841 14.1293 19.1264 13.985 18.915 13.785V13.7475L17.415 12.2475C17.2738 12.1063 17.0823 12.0269 16.8825 12.0269C16.6828 12.0269 16.4913 12.1063 16.35 12.2475C16.2088 12.3887 16.1295 12.5803 16.1295 12.78C16.1295 12.9797 16.2088 13.1713 16.35 13.3125L17.85 14.8125C17.9404 14.9218 17.9868 15.0609 17.9801 15.2026C17.9734 15.3443 17.9141 15.4784 17.8138 15.5787C17.7135 15.679 17.5794 15.7383 17.4377 15.7451C17.296 15.7518 17.1569 15.7054 17.0475 15.615C16.9789 15.5417 16.8962 15.4828 16.8044 15.442C16.7126 15.4012 16.6136 15.3792 16.5132 15.3774C16.4127 15.3755 16.3129 15.3939 16.2197 15.4313C16.1265 15.4687 16.0417 15.5245 15.9704 15.5953C15.8991 15.666 15.8428 15.7504 15.8047 15.8434C15.7666 15.9363 15.7476 16.036 15.7487 16.1364C15.7498 16.2369 15.7711 16.3361 15.8113 16.4282C15.8514 16.5203 15.9097 16.6033 15.9825 16.6725C16.0358 16.7249 16.0782 16.7873 16.1071 16.8562C16.1359 16.9251 16.1508 16.999 16.1508 17.0737C16.1508 17.1485 16.1359 17.2224 16.1071 17.2913C16.0782 17.3602 16.0358 17.4226 15.9825 17.475C15.9295 17.5285 15.8665 17.571 15.7969 17.6C15.7274 17.629 15.6529 17.6439 15.5775 17.6439C15.5022 17.6439 15.4277 17.629 15.3581 17.6C15.2886 17.571 15.2255 17.5285 15.1725 17.475C15.032 17.3353 14.8419 17.2569 14.6438 17.2569C14.4457 17.2569 14.2556 17.3353 14.115 17.475C13.9754 17.6155 13.8969 17.8056 13.8969 18.0037C13.8969 18.2019 13.9754 18.392 14.115 18.5325C14.2225 18.6389 14.2832 18.7836 14.2839 18.9348C14.2846 19.086 14.2252 19.2313 14.1188 19.3387C14.0124 19.4462 13.8676 19.5069 13.7164 19.5076C13.5652 19.5083 13.42 19.4489 13.3125 19.3425L12.7125 18.7425L12.9225 18.54C13.1155 18.3477 13.2686 18.1192 13.3731 17.8676C13.4776 17.616 13.5314 17.3462 13.5314 17.0737C13.5314 16.8013 13.4776 16.5315 13.3731 16.2799C13.2686 16.0283 13.1155 15.7998 12.9225 15.6075C12.5747 15.2503 12.1074 15.034 11.61 15C11.5749 14.5162 11.3673 14.0611 11.025 13.7175C10.6796 13.3833 10.229 13.1792 9.75004 13.14C9.70842 12.6564 9.4988 12.2027 9.15754 11.8575C8.93563 11.6289 8.66358 11.455 8.3629 11.3495C8.06223 11.2441 7.74115 11.21 7.42504 11.25C7.30211 10.781 7.01499 10.3717 6.61587 10.0964C6.21675 9.82116 5.73211 9.69824 5.25004 9.75V9C5.24957 7.82829 5.70614 6.70261 6.52267 5.86226C7.3392 5.02192 8.4513 4.5332 9.62254 4.5L8.42254 5.4375C7.93063 5.83417 7.61441 6.40834 7.5421 7.03611C7.4698 7.66387 7.64721 8.2949 8.03605 8.79302C8.4249 9.29113 8.994 9.61639 9.62054 9.69862C10.2471 9.78084 10.8808 9.61342 11.385 9.2325L12.645 8.25H15.4425L18.3975 11.25L20.175 13.02C20.2994 13.1578 20.3683 13.3369 20.3683 13.5225C20.3683 13.7081 20.2994 13.8872 20.175 14.025C20.1102 14.0965 20.0267 14.1484 19.9339 14.1749C19.8412 14.2014 19.7428 14.2014 19.65 14.175L19.665 14.205Z" fill="#343A40"/>
</svg>
