<svg width="16" height="16" viewBox="0 0 16 16" fill="none" xmlns="http://www.w3.org/2000/svg">
<path d="M7.99998 6.66658C8.70722 6.66658 9.3855 6.38563 9.8856 5.88554C10.3857 5.38544 10.6666 4.70716 10.6666 3.99992C10.6666 3.29267 10.3857 2.6144 9.8856 2.1143C9.3855 1.6142 8.70722 1.33325 7.99998 1.33325C7.29274 1.33325 6.61446 1.6142 6.11436 2.1143C5.61426 2.6144 5.33331 3.29267 5.33331 3.99992C5.33331 4.70716 5.61426 5.38544 6.11436 5.88554C6.61446 6.38563 7.29274 6.66658 7.99998 6.66658ZM7.99998 6.66658V14.6666" stroke="#343A40" stroke-width="2"/>
<circle cx="2" cy="2" r="2" transform="matrix(1 0 0 -1 6 6)" fill="#FF6B6B"/>
</svg>
