<svg width="24" height="24" viewBox="0 0 24 24" fill="none" xmlns="http://www.w3.org/2000/svg">
<path d="M1.68511 10.92L2.87139 10.8463C4.28194 10.759 5.69751 10.8902 7.06796 11.2354L9.05653 11.736C9.58394 11.8691 10.0458 12.1877 10.3574 12.6335C10.6691 13.0792 10.8098 13.6224 10.7537 14.1634C10.62 15.4748 9.39939 16.392 8.10339 16.1623L6.20911 15.8228L12.8897 17.0211L19.8102 15.3788C20.3483 15.2522 20.9145 15.3402 21.3888 15.6241C21.8631 15.9079 22.2082 16.3654 22.3508 16.8994C22.6251 17.9331 22.0885 19.008 21.0994 19.4108L15.5622 21.6583C12.8702 22.7517 9.8708 22.8206 7.13139 21.852L1.39368 19.8206M16.4022 2.15141C16.4619 2.00389 16.5643 1.87755 16.6962 1.78859C16.8282 1.69963 16.9837 1.6521 17.1428 1.6521C17.302 1.6521 17.4575 1.69963 17.5894 1.78859C17.7214 1.87755 17.8237 2.00389 17.8834 2.15141L18.8897 4.60798L21.6205 4.84798C22.3337 4.9097 22.6114 5.80798 22.0577 6.26055L20.4342 7.59427C20.3209 7.68812 20.2354 7.81124 20.187 7.95026C20.1386 8.08928 20.1293 8.23888 20.16 8.38284L20.6982 10.872C20.7321 11.0277 20.7186 11.19 20.6596 11.3379C20.6005 11.4859 20.4985 11.6129 20.3667 11.7024C20.2349 11.792 20.0794 11.8401 19.92 11.8406C19.7607 11.8411 19.6049 11.7939 19.4725 11.7051L17.1428 10.1486L14.8131 11.7086C14.6807 11.7975 14.5246 11.8448 14.365 11.8443C14.2055 11.8438 14.0497 11.7956 13.9178 11.7057C13.786 11.6159 13.684 11.4887 13.6251 11.3404C13.5662 11.1921 13.5531 11.0295 13.5874 10.8737L14.1257 8.38284C14.156 8.23914 14.1465 8.08988 14.0982 7.9512C14.0498 7.81252 13.9645 7.68969 13.8514 7.59598L12.228 6.26227C12.1049 6.16164 12.0147 6.0266 11.9688 5.87442C11.923 5.72224 11.9235 5.55984 11.9705 5.40798C12.0174 5.25613 12.1086 5.12173 12.2323 5.02197C12.3561 4.92221 12.5067 4.86163 12.6651 4.84798L15.396 4.60798L16.4022 2.15141Z" stroke="#343A40" stroke-width="1.5" stroke-linecap="round" stroke-linejoin="round"/>
</svg>
